COMMAND:
ffmpeg -y -hide_banner -ss 5.2 -t 3.207 -i /Volumes/AIGC/AI-CUT/projects/0622/素材/视频/操作展示/微信视频2026-06-21_220316_527.mp4 -vf split=2[fg][bg];[bg]scale=1280:720:force_original_aspect_ratio=increase,crop=1280:720,gblur=sigma=24[bg];[fg]scale=1280:720:force_original_aspect_ratio=decrease[fg];[bg][fg]overlay=(W-w)/2:(H-h)/2,fps=30,format=yuv420p -an -c:v libx264 -preset veryfast -crf 20 -movflags +faststart /Volumes/AIGC/AI-CUT/projects/0622/结果/文案8/auto-edit/edit/render_segments/segment_08_mc-08.mp4

STDOUT:


STDERR:
Input #0, mov,mp4,m4a,3gp,3g2,mj2, from '/Volumes/AIGC/AI-CUT/projects/0622/素材/视频/操作展示/微信视频2026-06-21_220316_527.mp4':
  Metadata:
    major_brand     : isom
    minor_version   : 512
    compatible_brands: isomiso2avc1mp41
    encoder         : Lavf59.14.100
  Duration: 00:00:11.27, start: 0.000000, bitrate: 3014 kb/s
  Stream #0:0[0x1](und): Video: h264 (High) (avc1 / 0x31637661), yuv420p(tv, bt709, progressive), 720x1280, 2949 kb/s, 29.65 fps, 30 tbr, 90k tbn (default)
    Metadata:
      handler_name    : VideoHandler
      vendor_id       : [0][0][0][0]
  Stream #0:1[0x2](und): Audio: aac (HE-AAC) (mp4a / 0x6134706D), 44100 Hz, stereo, fltp, 56 kb/s (default)
    Metadata:
      handler_name    : SoundHandler
      vendor_id       : [0][0][0][0]
Stream mapping:
  Stream #0:0 -> #0:0 (h264 (native) -> h264 (libx264))
Press [q] to stop, [?] for help
[libx264 @ 0xb7685ce00] using cpu capabilities: ARMv8 NEON DotProd I8MM
[libx264 @ 0xb7685ce00] profile High, level 3.1, 4:2:0, 8-bit
[libx264 @ 0xb7685ce00] 264 - core 165 r3222 b35605a - H.264/MPEG-4 AVC codec - Copyleft 2003-2025 - http://www.videolan.org/x264.html - options: cabac=1 ref=1 deblock=1:0:0 analyse=0x3:0x113 me=hex subme=2 psy=1 psy_rd=1.00:0.00 mixed_ref=0 me_range=16 chroma_me=1 trellis=0 8x8dct=1 cqm=0 deadzone=21,11 fast_pskip=1 chroma_qp_offset=0 threads=15 lookahead_threads=5 sliced_threads=0 nr=0 decimate=1 interlaced=0 bluray_compat=0 constrained_intra=0 bframes=3 b_pyramid=2 b_adapt=1 b_bias=0 direct=1 weightb=1 open_gop=0 weightp=1 keyint=250 keyint_min=25 scenecut=40 intra_refresh=0 rc_lookahead=10 rc=crf mbtree=1 crf=20.0 qcomp=0.60 qpmin=0 qpmax=69 qpstep=4 ip_ratio=1.40 aq=1:1.00
Output #0, mp4, to '/Volumes/AIGC/AI-CUT/projects/0622/结果/文案8/auto-edit/edit/render_segments/segment_08_mc-08.mp4':
  Metadata:
    major_brand     : isom
    minor_version   : 512
    compatible_brands: isomiso2avc1mp41
    encoder         : Lavf62.3.100
  Stream #0:0(und): Video: h264 (avc1 / 0x31637661), yuv420p(tv, bt709, progressive), 1280x720, q=2-31, 30 fps, 15360 tbn (default)
    Metadata:
      encoder         : Lavc62.11.100 libx264
      handler_name    : VideoHandler
      vendor_id       : [0][0][0][0]
    Side data:
      cpb: bitrate max/min/avg: 0/0/0 buffer size: 0 vbv_delay: N/A
frame=    7 fps=0.0 q=26.0 size=       0KiB time=00:00:00.16 bitrate=   2.3kbits/s speed=0.329x elapsed=0:00:00.50    
frame=   48 fps= 47 q=26.0 size=     512KiB time=00:00:01.53 bitrate=2735.7kbits/s speed=1.52x elapsed=0:00:01.01    
[mp4 @ 0xb77433c00] Starting second pass: moving the moov atom to the beginning of the file
[out#0/mp4 @ 0xb77004900] video:1019KiB audio:0KiB subtitle:0KiB other streams:0KiB global headers:0KiB muxing overhead: 0.195828%
frame=   97 fps= 73 q=-1.0 Lsize=    1021KiB time=00:00:03.16 bitrate=2640.8kbits/s speed=2.39x elapsed=0:00:01.32    
[libx264 @ 0xb7685ce00] frame I:1     Avg QP:20.53  size: 66319
[libx264 @ 0xb7685ce00] frame P:24    Avg QP:21.16  size: 25370
[libx264 @ 0xb7685ce00] frame B:72    Avg QP:23.79  size:  5103
[libx264 @ 0xb7685ce00] consecutive B-frames:  1.0%  0.0%  0.0% 99.0%
[libx264 @ 0xb7685ce00] mb I  I16..4: 19.2% 52.0% 28.8%
[libx264 @ 0xb7685ce00] mb P  I16..4: 10.8% 20.7%  1.1%  P16..4: 27.3% 13.9%  7.3%  0.0%  0.0%    skip:19.0%
[libx264 @ 0xb7685ce00] mb B  I16..4:  1.4%  0.9%  0.0%  B16..8: 17.6%  5.9%  1.0%  direct: 7.0%  skip:66.1%  L0:43.7% L1:40.1% BI:16.3%
[libx264 @ 0xb7685ce00] 8x8 transform intra:58.6% inter:18.6%
[libx264 @ 0xb7685ce00] coded y,uvDC,uvAC intra: 33.8% 35.0% 3.5% inter: 8.3% 9.1% 0.3%
[libx264 @ 0xb7685ce00] i16 v,h,dc,p: 35% 21% 12% 32%
[libx264 @ 0xb7685ce00] i8 v,h,dc,ddl,ddr,vr,hd,vl,hu: 24% 25% 17%  1%  9%  7% 10%  4%  3%
[libx264 @ 0xb7685ce00] i4 v,h,dc,ddl,ddr,vr,hd,vl,hu: 30% 16% 16%  3% 12%  4% 10%  4%  5%
[libx264 @ 0xb7685ce00] i8c dc,h,v,p: 53% 20% 19%  7%
[libx264 @ 0xb7685ce00] Weighted P-Frames: Y:8.3% UV:0.0%
[libx264 @ 0xb7685ce00] kb/s:2579.57
